<svg xmlns="http://www.w3.org/2000/svg"  viewBox="0 0 48 48" width="50px" height="50px" baseProfile="basic"><linearGradient id="GNQpwzhk_IbsYQlQWcRHKa" x1="24" x2="24" y1="3.369" y2="44.815" gradientUnits="userSpaceOnUse"><stop offset="0" stop-color="#fc7d5b"/><stop offset=".06" stop-color="#f8734f"/><stop offset=".18" stop-color="#f3653d"/><stop offset=".326" stop-color="#f05b31"/><stop offset=".523" stop-color="#ee552a"/><stop offset="1" stop-color="#ed5328"/></linearGradient><path fill="url(#GNQpwzhk_IbsYQlQWcRHKa)" d="M29,24.009c0.001,1.442-0.259,2.873-0.768,4.223C26.882,28.74,25.451,29,24.008,29h-0.017	c-1.486-0.002-2.909-0.273-4.222-0.769C19.26,26.882,19,25.451,19,24.009v-0.017c-0.001-1.442,0.259-2.872,0.767-4.222	c1.35-0.509,2.781-0.77,4.224-0.769h0.017c1.443-0.001,2.874,0.26,4.224,0.769c0.509,1.349,0.769,2.78,0.768,4.222L29,24.009	L29,24.009z M32.048,20.667l7.639-7.64c0.353-0.353,0.402-0.919,0.095-1.313c-0.508-0.652-1.056-1.272-1.641-1.857V9.856	c-0.585-0.584-1.205-1.131-1.856-1.639c-0.393-0.307-0.96-0.257-1.313,0.095l-7.64,7.64V5.148c0-0.499-0.366-0.934-0.861-0.996	C25.655,4.051,24.833,4,24.01,4h-0.021c-0.834,0-1.656,0.053-2.463,0.153c-0.495,0.061-0.86,0.496-0.86,0.995v10.805l-7.64-7.64	c-0.353-0.353-0.919-0.402-1.313-0.095c-0.651,0.508-1.271,1.056-1.855,1.64L9.855,9.861c-0.583,0.584-1.13,1.203-1.637,1.853	c-0.307,0.393-0.258,0.96,0.095,1.313l7.64,7.64H5.17c-0.51,0-0.939,0.382-0.994,0.889C4.096,22.294,4,23.327,4,23.993v0.014	c0,0.836,0.052,1.659,0.153,2.467c0.061,0.495,0.497,0.859,0.995,0.859h10.805l-7.64,7.64c-0.353,0.353-0.402,0.92-0.095,1.313	c1.017,1.305,2.192,2.479,3.496,3.496c0.393,0.307,0.96,0.258,1.313-0.095l7.64-7.64v10.805c0,0.499,0.366,0.934,0.861,0.996	c0.815,0.101,1.636,0.152,2.457,0.152h0.028c0.822-0.001,1.642-0.052,2.458-0.152c0.495-0.061,0.861-0.497,0.861-0.996V32.047	l7.641,7.641c0.353,0.353,0.919,0.402,1.313,0.095c0.651-0.508,1.271-1.055,1.856-1.639l0.002-0.002	c0.584-0.585,1.131-1.204,1.639-1.856c0.307-0.393,0.258-0.96-0.095-1.313l-7.641-7.64h10.806c0.499,0,0.934-0.365,0.995-0.86	c0.1-0.806,0.151-1.626,0.152-2.459v-0.029c-0.001-0.833-0.053-1.653-0.152-2.459c-0.061-0.495-0.497-0.86-0.995-0.86L32.048,20.667	z"/></svg>